<svg xmlns="http://www.w3.org/2000/svg" viewBox="0 0 800 600" fill="none">
  <defs>
    <linearGradient id="sky" x1="0" y1="0" x2="0" y2="1">
      <stop offset="0%" stop-color="#d8f3dc"/>
      <stop offset="100%" stop-color="#95d5b2"/>
    </linearGradient>
  </defs>
  <rect width="800" height="600" fill="url(#sky)"/>
  <path d="M0 420 Q200 380 400 400 T800 420 L800 600 L0 600 Z" fill="#40916c" opacity="0.25"/>
  <rect x="120" y="180" width="560" height="280" rx="12" fill="#ffffff" opacity="0.9"/>
  <rect x="140" y="200" width="520" height="200" rx="8" fill="#d8f3dc"/>
  <rect x="160" y="220" width="100" height="160" rx="6" fill="#2d6a4f" opacity="0.35"/>
  <rect x="280" y="220" width="100" height="160" rx="6" fill="#2d6a4f" opacity="0.35"/>
  <rect x="400" y="220" width="100" height="160" rx="6" fill="#2d6a4f" opacity="0.35"/>
  <rect x="520" y="220" width="100" height="160" rx="6" fill="#2d6a4f" opacity="0.35"/>
  <circle cx="200" cy="280" r="28" fill="#95d5b2"/>
  <circle cx="340" cy="300" r="32" fill="#40916c" opacity="0.6"/>
  <circle cx="480" cy="270" r="26" fill="#95d5b2"/>
  <circle cx="600" cy="290" r="30" fill="#2d6a4f" opacity="0.4"/>
  <rect x="300" y="120" width="200" height="60" rx="8" fill="#1b4332" opacity="0.15"/>
  <text x="400" y="155" text-anchor="middle" fill="#1b4332" font-family="system-ui,sans-serif" font-size="18" font-weight="600">Demo Greenhouse</text>
</svg>
